<?xml version="1.0" encoding="utf-8"?>
<!-- Generator: Adobe Illustrator 16.0.4, SVG Export Plug-In . SVG Version: 6.00 Build 0)  -->
<!DOCTYPE svg PUBLIC "-//W3C//DTD SVG 1.1//EN" "http://www.w3.org/Graphics/SVG/1.1/DTD/svg11.dtd">
<svg version="1.1" id="Layer_1" xmlns="http://www.w3.org/2000/svg" xmlns:xlink="http://www.w3.org/1999/xlink" x="0px" y="0px"
	 width="300px" height="300px" viewBox="0 0 300 300" enable-background="new 0 0 300 300" xml:space="preserve">
<g>
	<path d="M166.188,154.031c0,0-12.236-34.357-19.634-55.253h-0.625C138.577,121.762,127.875,154,127.875,154 M124.75,164
		c0,0-21.334,63.513-29.565,89.542H83.771C67.276,196.446,49.517,141.266,32.069,84.824C24.145,59.135,19.39,55.959,0.36,53.428
		v-9.204h79.927v9.204c-23.477,2.854-23.789,6.021-19.357,22.197c12.371,41.554,24.429,83.088,37.738,126.528h0.635
		c16.504-52.313,34.25-104.01,50.109-155.076h10.47c17.765,51.384,36.155,102.128,54.873,155.412h0.626
		c13.318-41.871,30.13-101.497,34.885-123.381c4.437-19.03,3.175-22.827-21.875-25.681v-9.204h70.704v9.204
		c-21.566,3.167-25.05,6.021-34.24,32.032c-7.285,20.613-26.003,79.604-52.323,168.082h-11.096
		C192.928,229.112,169.438,164,169.438,164"/>
</g>
</svg>
